Force Plate Walk 6
version=1
nRows=32
nColumns=19
inDegrees=yes
endheader
time	ground_force1_vx	ground_force1_vy	ground_force1_vz	ground_force1_px	ground_force1_py	ground_force1_pz	ground_torque1_x	ground_torque1_y	ground_torque1_z	ground_force2_vx	ground_force2_vy	ground_force2_vz	ground_force2_px	ground_force2_py	ground_force2_pz	ground_torque2_x	ground_torque2_y	ground_torque2_z
5.275000	-0.000000	-0.000000	0.000000	0.765500	0.000000	-0.232000	0.000000	0.000000	0.000000	78.563240	495.603363	-49.222389	0.049109	0.000000	-0.102517	0.000001	0.001024	0.000001	
5.276000	-0.000000	-0.000000	0.000000	0.765500	0.000000	-0.232000	0.000000	0.000000	0.000000	77.757294	489.575592	-50.075756	0.048000	0.000000	-0.101760	0.000007	-0.094256	0.000001	
5.277000	-0.000000	-0.000000	0.000000	0.765500	0.000000	-0.232000	0.000000	0.000000	0.000000	77.240143	485.678802	-49.805386	0.047944	0.000000	-0.102425	-0.000003	-0.093854	0.000001	
5.278000	-0.000000	-0.000000	0.000000	0.765500	0.000000	-0.232000	0.000000	0.000000	0.000000	76.093994	482.814453	-49.882801	0.047975	0.000000	-0.102529	0.000001	-0.298647	0.000008	
5.279000	-0.000000	-0.000000	0.000000	0.765500	0.000000	-0.232000	0.000000	0.000000	0.000000	75.655968	477.514221	-49.422993	0.047796	0.000000	-0.102390	0.000001	-0.142857	0.000004	
5.280000	-0.000000	-0.000000	0.000000	0.765500	0.000000	-0.232000	0.000000	0.000000	0.000000	74.689438	473.593658	-49.322617	0.047924	0.000000	-0.102347	0.000000	-0.035609	0.000003	
5.281000	-0.000000	-0.000000	0.000000	0.765500	0.000000	-0.232000	0.000000	0.000000	0.000000	73.979431	467.915497	-49.132210	0.046838	0.000000	-0.101631	0.000002	0.057240	0.000000	
5.282000	-0.000000	-0.000000	0.000000	0.765500	0.000000	-0.232000	0.000000	0.000000	0.000000	73.374557	463.309326	-49.294586	0.046598	0.000000	-0.101994	0.000002	-0.130830	0.000002	
5.283000	-0.000000	-0.000000	0.000000	0.765500	0.000000	-0.232000	0.000000	0.000000	0.000000	72.833557	459.032928	-49.010647	0.046359	0.000000	-0.101160	-0.000004	0.054345	0.000002	
5.284000	-0.000000	-0.000000	0.000000	0.765500	0.000000	-0.232000	0.000000	0.000000	0.000000	72.045952	453.364288	-48.636131	0.045463	0.000000	-0.100821	0.000002	-0.011283	-0.000000	
5.285000	-0.000000	-0.000000	0.000000	0.765500	0.000000	-0.232000	0.000000	0.000000	0.000000	71.434738	448.050537	-48.807816	0.045151	0.000000	-0.101141	0.000000	-0.031843	0.000007	
5.286000	-0.000000	-0.000000	0.000000	0.765500	0.000000	-0.232000	0.000000	0.000000	0.000000	71.075340	444.501251	-48.704826	0.045580	0.000000	-0.101023	-0.000003	-0.013852	0.000004	
5.287000	-0.000000	-0.000000	0.000000	0.765500	0.000000	-0.232000	0.000000	0.000000	0.000000	70.206947	440.592957	-48.166527	0.045389	0.000000	-0.101371	0.000005	0.016621	-0.000000	
5.288000	-0.000000	-0.000000	0.000000	0.765500	0.000000	-0.232000	0.000000	0.000000	0.000000	69.672470	436.325195	-47.975849	0.045044	0.000000	-0.100833	-0.000004	0.140701	0.000004	
5.289000	-0.000000	-0.000000	0.000000	0.765500	0.000000	-0.232000	0.000000	0.000000	0.000000	68.702538	431.705627	-47.877480	0.044988	0.000000	-0.100921	0.000002	0.090520	0.000007	
5.290000	-0.000000	-0.000000	0.000000	0.765500	0.000000	-0.232000	0.000000	0.000000	0.000000	68.086128	425.649109	-47.419170	0.044204	0.000000	-0.099861	0.000003	0.083208	0.000000	
5.291000	-0.000000	-0.000000	0.000000	0.765500	0.000000	-0.232000	0.000000	0.000000	0.000000	67.034019	420.359741	-47.314453	0.043348	0.000000	-0.099901	0.000000	0.072594	0.000003	
5.292000	-0.000000	-0.000000	0.000000	0.765500	0.000000	-0.232000	0.000000	0.000000	0.000000	66.329643	418.199554	-47.039833	0.044002	0.000000	-0.099917	0.000000	0.168693	0.000004	
5.293000	-0.000000	-0.000000	0.000000	0.765500	0.000000	-0.232000	0.000000	0.000000	0.000000	65.985474	413.249298	-46.594509	0.043844	0.000000	-0.100132	-0.000003	0.140135	0.000001	
5.294000	-0.000000	-0.000000	0.000000	0.765500	0.000000	-0.232000	0.000000	0.000000	0.000000	65.019859	408.657227	-46.146332	0.043140	0.000000	-0.099897	0.000001	0.190758	0.000002	
5.295000	-0.000000	-0.000000	0.000000	0.765500	0.000000	-0.232000	0.000000	0.000000	0.000000	64.494698	406.505035	-46.404541	0.044331	0.000000	-0.100468	0.000001	0.255814	-0.000004	
5.296000	-0.000000	-0.000000	0.000000	0.765500	0.000000	-0.232000	0.000000	0.000000	0.000000	63.707043	402.607605	-45.859871	0.044772	0.000000	-0.100740	-0.000003	0.265603	-0.000005	
5.297000	-0.000000	-0.000000	0.000000	0.765500	0.000000	-0.232000	0.000000	0.000000	0.000000	62.823368	397.646088	-45.057911	0.044173	0.000000	-0.100335	-0.000001	0.296257	-0.000004	
5.298000	-0.000000	-0.000000	0.000000	0.765500	0.000000	-0.232000	0.000000	0.000000	0.000000	61.506733	393.704742	-44.952732	0.043868	0.000000	-0.100350	0.000001	0.212511	-0.000005	
5.299000	-0.000000	-0.000000	0.000000	0.765500	0.000000	-0.232000	0.000000	0.000000	0.000000	61.335865	389.099823	-44.590553	0.043191	0.000000	-0.099916	0.000003	0.309576	-0.000008	
5.300000	-0.000000	-0.000000	0.000000	0.765500	0.000000	-0.232000	0.000000	0.000000	0.000000	60.709656	382.705566	-44.394794	0.041904	0.000000	-0.098854	0.000001	0.285313	-0.000006	
5.301000	-0.000000	-0.000000	0.000000	0.765500	0.000000	-0.232000	0.000000	0.000000	0.000000	60.189915	380.587433	-44.124195	0.043052	0.000000	-0.099494	-0.000000	0.320919	-0.000006	
5.302000	-0.000000	-0.000000	0.000000	0.765500	0.000000	-0.232000	0.000000	0.000000	0.000000	59.314041	377.014587	-43.682808	0.043166	0.000000	-0.099797	0.000004	0.316072	-0.000006	
5.303000	-0.000000	-0.000000	0.000000	0.765500	0.000000	-0.232000	0.000000	0.000000	0.000000	58.602425	371.694000	-44.191109	0.042209	0.000000	-0.099278	0.000003	0.132785	-0.000001	
5.304000	-0.000000	-0.000000	0.000000	0.765500	0.000000	-0.232000	0.000000	0.000000	0.000000	58.077503	367.448425	-43.472523	0.042212	0.000000	-0.098677	0.000001	0.330462	-0.000001	
5.305000	-0.000000	-0.000000	0.000000	0.765500	0.000000	-0.232000	0.000000	0.000000	0.000000	57.287575	363.899872	-43.106792	0.041609	0.000000	-0.098703	0.000000	0.290480	-0.000005	
5.306000	-0.000000	-0.000000	0.000000	0.765500	0.000000	-0.232000	0.000000	0.000000	0.000000	56.675777	359.996002	-42.305103	0.041256	0.000000	-0.098736	0.000001	0.376065	-0.000003	
